<svg width="542" height="339" viewBox="0 0 542 339" fill="none" xmlns="http://www.w3.org/2000/svg">
    <path d="M321.438 86.0171L236.008 104.417C233.719 104.913 231.349 104.89 229.071 104.35C226.792 103.81 224.664 102.766 222.842 101.296C221.019 99.8255 219.549 97.9658 218.54 95.8532C217.53 93.7405 217.007 91.4286 217.008 89.0871V69.2071C217.009 65.622 218.238 62.1455 220.491 59.3563C222.743 56.5671 225.883 54.6335 229.388 53.8771L314.838 35.4371C317.126 34.9433 319.495 34.9677 321.773 35.5086C324.05 36.0495 326.178 37.0931 328 38.563C329.822 40.033 331.292 41.8919 332.302 44.0036C333.312 46.1153 333.837 48.4263 333.838 50.7671V70.6771C333.835 74.2663 332.604 77.7463 330.347 80.5376C328.091 83.3288 324.947 85.2627 321.438 86.0171Z" fill="#00C88B"/>
    <path d="M313.378 147.807L208.938 170.307V130.977C208.937 127.392 210.166 123.914 212.419 121.125C214.671 118.335 217.812 116.402 221.318 115.647L306.767 97.2071C309.056 96.7133 311.425 96.7377 313.703 97.2786C315.98 97.8195 318.108 98.8631 319.93 100.333C321.752 101.803 323.221 103.662 324.232 105.774C325.242 107.885 325.766 110.196 325.767 112.537V132.447C325.774 136.039 324.547 139.525 322.292 142.321C320.037 145.117 316.89 147.053 313.378 147.807Z" fill="#00C88B"/>
    <path d="M317.198 78.8671L303.017 81.8671C301.443 82.1996 299.815 82.1775 298.25 81.8024C296.686 81.4274 295.224 80.7087 293.972 79.6986C292.72 78.6885 291.708 77.4123 291.01 75.9626C290.312 74.5129 289.946 72.926 289.938 71.3171V57.6371C289.937 55.1578 290.786 52.7531 292.344 50.8242C293.902 48.8953 296.074 47.5586 298.497 47.0371L312.677 43.9771C314.259 43.6353 315.898 43.6519 317.472 44.0258C319.047 44.3997 320.518 45.1215 321.777 46.138C323.036 47.1546 324.052 48.4402 324.749 49.9005C325.447 51.3608 325.808 52.9588 325.807 54.5771V68.2671C325.804 70.7529 324.947 73.1621 323.379 75.0916C321.812 77.0211 319.63 78.3539 317.198 78.8671Z" fill="#FDFDFD"/>
    <path d="M244.328 154.627L217.018 160.507V133.397C217.017 130.918 217.866 128.513 219.424 126.584C220.982 124.655 223.154 123.319 225.578 122.797L239.758 119.737C241.343 119.387 242.987 119.397 244.568 119.767C246.148 120.137 247.626 120.857 248.891 121.874C250.156 122.892 251.177 124.181 251.877 125.645C252.578 127.11 252.94 128.714 252.938 130.337V144.027C252.932 146.512 252.074 148.921 250.507 150.85C248.94 152.779 246.759 154.112 244.328 154.627Z" fill="#FDFDFD"/>
    <path d="M331.497 229.127C325.097 229.127 319.888 224.227 319.888 218.207C319.888 212.187 325.097 207.277 331.497 207.277C333.334 207.261 335.15 207.674 336.799 208.483C338.448 209.292 339.886 210.475 340.997 211.937L351.997 209.557C350.046 205.821 347.095 202.701 343.473 200.545C339.852 198.389 335.702 197.282 331.487 197.347C319.067 197.347 308.948 206.697 308.948 218.207C308.948 229.717 319.067 239.057 331.487 239.057C335.685 239.119 339.817 238.018 343.427 235.875C347.036 233.732 349.982 230.632 351.938 226.917L340.938 224.547C339.822 225.985 338.39 227.147 336.753 227.941C335.116 228.735 333.317 229.141 331.497 229.127Z" fill="#FDFDFD"/>
    <path d="M155.577 225.267C156.297 227.267 158.627 229.597 162.577 230.077C166.837 230.597 170.407 229.277 170.577 227.327C170.747 225.377 169.767 224.327 164.677 222.717L164.197 222.567L164.057 222.517L162.737 222.117C162.017 221.907 161.377 221.717 160.817 221.537L159.937 221.257C156.227 220.107 146.367 217.037 147.137 208.447C147.827 200.757 155.817 197.247 162.947 197.247C170.747 197.247 176.557 200.357 179.317 206.007L168.617 208.307C167.517 206.947 165.617 205.977 162.487 205.977C158.677 205.977 153.627 208.487 160.487 211.037C161.227 211.327 162.167 211.667 163.367 212.037L164.447 212.377C164.887 212.527 165.447 212.677 165.977 212.837C170.727 214.227 180.627 217.127 180.917 226.267C180.961 227.879 180.645 229.481 179.991 230.955C179.337 232.429 178.362 233.738 177.137 234.787C173.997 237.597 169.257 239.177 163.997 239.177L162.937 239.207C154.307 238.867 147.307 234.287 145.117 227.547L155.577 225.267Z" fill="#FDFDFD"/>
    <path d="M254.267 198.107L232.817 238.347H223.817L218.207 225.347L212.587 238.347H203.587L182.177 198.107H193.937L207.577 224.937L212.277 215.697L203.337 198.107H215.137L218.137 206.107L221.137 198.107H232.937L223.997 215.697L228.697 224.937L242.337 198.107H254.267Z" fill="#FDFDFD"/>
    <path d="M258.008 187.817C258.008 186.563 258.379 185.337 259.076 184.295C259.773 183.252 260.763 182.44 261.921 181.96C263.08 181.48 264.355 181.354 265.584 181.599C266.814 181.844 267.944 182.447 268.831 183.334C269.717 184.221 270.321 185.35 270.566 186.58C270.81 187.81 270.685 189.085 270.205 190.243C269.725 191.402 268.912 192.392 267.87 193.089C266.827 193.785 265.601 194.157 264.348 194.157C262.666 194.157 261.053 193.489 259.865 192.3C258.676 191.111 258.008 189.499 258.008 187.817ZM258.878 238.337V198.097H269.808V238.337H258.878Z" fill="#FDFDFD"/>
    <path d="M294.257 207.047V222.797C294.257 227.237 294.577 227.887 295.607 228.727C296.987 229.837 301.497 229.517 304.867 228.977V238.977C303.123 239.165 301.371 239.265 299.617 239.277C295.737 239.277 292.137 238.677 289.267 236.827C284.047 233.447 283.327 228.087 283.327 222.827V207.037H275.067V198.097H283.327V188.397L294.257 186.037V198.097H304.867V207.097L294.257 207.047Z" fill="#FDFDFD"/>
    <path d="M386.717 219.557V218.207C386.717 217.807 386.717 217.457 386.717 217.087C386.659 215.719 386.382 214.368 385.897 213.087C385.479 211.945 384.852 210.89 384.047 209.977C383.356 209.196 382.516 208.561 381.577 208.107C380.561 207.62 379.462 207.328 378.337 207.247C377.672 207.197 377.003 207.197 376.337 207.247H376.287H375.967H375.527C369.777 207.917 366.607 212.107 366.607 216.907V238.277H355.647V181.997H366.577V203.207C367.762 201.623 369.262 200.302 370.983 199.328C372.705 198.353 374.61 197.747 376.577 197.547C377.138 197.468 377.702 197.418 378.267 197.397C381.069 197.26 383.866 197.745 386.457 198.817C389.014 199.877 391.27 201.549 393.027 203.687C394.573 205.59 395.738 207.773 396.457 210.117C397.111 212.242 397.481 214.445 397.557 216.667L397.607 238.357H386.697V219.557H386.717Z" fill="#FDFDFD"/>
    <path d="M395.557 291.407C396.277 293.407 398.607 295.737 402.557 296.217C406.817 296.737 410.387 295.417 410.557 293.467C410.727 291.517 409.757 290.467 404.667 288.867L404.187 288.707L404.047 288.657L402.727 288.257C402.007 288.047 401.367 287.857 400.807 287.677L399.927 287.397C396.217 286.247 386.357 283.177 387.127 274.587C387.817 266.897 395.807 263.387 402.937 263.387C410.737 263.387 416.547 266.497 419.307 272.147L408.607 274.447C407.507 273.087 405.607 272.117 402.477 272.117C398.667 272.117 393.617 274.627 400.477 277.177C401.217 277.467 402.157 277.807 403.357 278.177L404.437 278.517C404.877 278.667 405.437 278.817 405.967 278.977C410.717 280.367 420.617 283.267 420.907 292.407C420.951 294.019 420.635 295.621 419.981 297.095C419.327 298.569 418.352 299.878 417.127 300.927C413.987 303.737 409.237 305.317 403.987 305.317H402.927C394.297 304.977 387.297 300.397 385.107 293.657L395.557 291.407Z" fill="#FDFDFD"/>
    <path d="M169.427 248.137V304.497H158.497V298.977C156.897 300.685 155.008 302.096 152.917 303.147C150.243 304.43 147.332 305.142 144.367 305.237C141.353 305.322 138.35 304.82 135.527 303.757C132.78 302.719 130.273 301.134 128.157 299.097C126.157 297.2 124.564 294.916 123.476 292.384C122.387 289.851 121.826 287.124 121.826 284.367C121.826 281.611 122.387 278.883 123.476 276.351C124.564 273.818 126.157 271.534 128.157 269.637C130.268 267.599 132.772 266.013 135.517 264.977C138.338 263.922 141.337 263.423 144.347 263.507C147.309 263.601 150.217 264.313 152.887 265.597C154.981 266.648 156.874 268.059 158.477 269.767V248.137H169.427ZM158.487 284.357C158.479 282.628 158.024 280.929 157.167 279.427C156.287 277.936 155.076 276.667 153.627 275.717C152.225 274.805 150.671 274.151 149.037 273.787C147.507 273.439 145.934 273.312 144.367 273.407C141.365 273.569 138.507 274.742 136.257 276.737C135.167 277.704 134.283 278.881 133.657 280.197C133.035 281.497 132.712 282.921 132.712 284.362C132.712 285.804 133.035 287.227 133.657 288.527C134.286 289.839 135.17 291.012 136.257 291.977C138.511 293.957 141.362 295.126 144.357 295.297C145.921 295.393 147.49 295.265 149.017 294.917C150.652 294.557 152.207 293.903 153.607 292.987C155.058 292.042 156.273 290.776 157.157 289.287C158.02 287.787 158.478 286.088 158.487 284.357Z" fill="#FDFDFD"/>
    <path d="M204.227 274.467L203.837 274.257C202.818 273.769 201.715 273.477 200.587 273.397C199.922 273.347 199.253 273.347 198.587 273.397H198.268L197.827 273.447C192.067 274.117 188.908 278.307 188.908 283.107V304.477H177.938V264.207H188.867V269.297C190.052 267.712 191.552 266.39 193.274 265.415C194.995 264.439 196.899 263.83 198.867 263.627C199.437 263.557 199.998 263.507 200.548 263.487C203.352 263.341 206.153 263.823 208.747 264.897L209.577 265.277L204.227 274.467Z" fill="#FDFDFD"/>
    <path d="M250.848 288.327H220.518C222.428 292.397 227.157 295.327 232.688 295.327C236.246 295.378 239.695 294.098 242.357 291.737L252.777 295.827C248.387 301.617 240.938 305.207 232.688 305.207C219.448 305.207 208.688 295.847 208.688 284.337C208.688 272.827 218.808 263.467 231.238 263.467C243.668 263.467 253.798 272.837 253.798 284.337C253.793 285.682 253.649 287.022 253.367 288.337L250.848 288.327ZM242.048 280.387C241.104 278.311 239.582 276.55 237.664 275.315C235.746 274.08 233.513 273.423 231.232 273.423C228.952 273.423 226.719 274.08 224.801 275.315C222.883 276.55 221.361 278.311 220.417 280.387H242.048Z" fill="#FDFDFD"/>
    <path d="M306.087 264.207V304.447H295.157V298.927C293.561 300.635 291.675 302.046 289.587 303.097C286.917 304.391 284.004 305.11 281.037 305.207C278.023 305.292 275.022 304.793 272.197 303.737C269.451 302.698 266.944 301.113 264.827 299.077C262.83 297.178 261.239 294.892 260.152 292.359C259.065 289.826 258.504 287.099 258.504 284.342C258.504 281.586 259.065 278.858 260.152 276.325C261.239 273.792 262.83 271.506 264.827 269.607C266.944 267.575 269.452 265.993 272.197 264.957C275.017 263.896 278.016 263.397 281.027 263.487C283.99 263.573 286.9 264.286 289.567 265.577C291.66 266.63 293.552 268.042 295.157 269.747V264.207H306.087ZM295.167 284.317C295.155 282.587 294.697 280.889 293.837 279.387C292.957 277.896 291.746 276.627 290.297 275.677C288.896 274.763 287.341 274.11 285.707 273.747C284.177 273.399 282.604 273.271 281.037 273.367C278.035 273.529 275.177 274.702 272.927 276.697C271.837 277.664 270.953 278.841 270.327 280.157C269.705 281.457 269.382 282.881 269.382 284.322C269.382 285.764 269.705 287.187 270.327 288.487C270.955 289.799 271.839 290.972 272.927 291.937C275.18 293.919 278.032 295.088 281.027 295.257C282.591 295.353 284.16 295.225 285.687 294.877C287.321 294.515 288.876 293.861 290.277 292.947C291.726 291.999 292.94 290.734 293.827 289.247C294.684 287.758 295.146 286.075 295.167 284.357V284.317Z" fill="#FDFDFD"/>
    <path d="M379.587 304.487H368.657C368.537 297.487 368.597 290.417 368.657 283.377V280.857C368.66 280.188 368.61 279.519 368.507 278.857C368.419 278.251 368.271 277.655 368.067 277.077C367.885 276.534 367.647 276.011 367.357 275.517C366.863 274.639 366.16 273.897 365.31 273.355C364.461 272.812 363.492 272.487 362.487 272.407C362.132 272.361 361.775 272.335 361.417 272.327C361.274 272.317 361.131 272.317 360.987 272.327H360.937C360.437 272.332 359.939 272.383 359.447 272.477C354.947 273.227 352.587 276.797 352.557 281.477V281.807V283.417V304.517H341.637C341.507 297.517 341.567 290.447 341.637 283.417V280.887C341.632 280.217 341.578 279.549 341.477 278.887C341.39 278.282 341.246 277.686 341.047 277.107C340.863 276.568 340.625 276.049 340.337 275.557C339.857 274.717 339.19 273.998 338.387 273.457C337.508 272.895 336.507 272.552 335.467 272.457C335.087 272.457 334.727 272.397 334.377 272.377H333.937C333.454 272.379 332.972 272.426 332.497 272.517C327.937 273.257 325.567 276.877 325.567 281.567V304.567H314.607V264.207H325.547V269.297C325.547 269.297 327.847 264.497 334.627 263.727C334.917 263.727 335.207 263.667 335.497 263.647C336.877 263.58 338.259 263.67 339.617 263.917C341.026 264.189 342.392 264.65 343.677 265.287C346.137 266.513 348.213 268.392 349.677 270.717C349.927 271.107 350.147 271.497 350.357 271.897C350.353 271.854 350.353 271.81 350.357 271.767C351.324 269.516 352.913 267.587 354.937 266.207C357.2 264.7 359.831 263.839 362.547 263.717C363.927 263.65 365.309 263.741 366.667 263.987C368.075 264.262 369.441 264.723 370.727 265.357C373.185 266.587 375.259 268.464 376.727 270.787C377.375 271.815 377.915 272.908 378.337 274.047C378.735 275.136 379.04 276.257 379.247 277.397C379.43 278.479 379.54 279.571 379.577 280.667V283.417C379.647 290.407 379.707 297.447 379.587 304.487Z" fill="#FDFDFD"/>
</svg>
